{
  "accessors": [
    {
      "bufferView": 0,
      "componentType": 5126,
      "count": 168,
      "type": "VEC3",
      "max": [
        -15.68054,
        40.78205,
        -3.0872364
      ],
      "min": [
        -58.1959076,
        -1.28564155,
        -25.1744728
      ]
    },
    {
      "bufferView": 1,
      "componentType": 5125,
      "count": 324,
      "type": "SCALAR",
      "max": [
        167.0
      ],
      "min": [
        0.0
      ]
    },
    {
      "bufferView": 2,
      "componentType": 5126,
      "count": 168,
      "type": "VEC3",
      "max": [
        1.0,
        1.0,
        1.0
      ],
      "min": [
        -1.0,
        -1.0,
        -1.0
      ]
    },
    {
      "bufferView": 3,
      "componentType": 5126,
      "count": 168,
      "type": "VEC2",
      "max": [
        1.0,
        1.0
      ],
      "min": [
        0.0,
        0.0
      ]
    },
    {
      "bufferView": 4,
      "componentType": 5126,
      "count": 120,
      "type": "VEC3",
      "max": [
        18.3799419,
        40.78205,
        -9.561082
      ],
      "min": [
        -10.5481882,
        -1.28564155,
        -31.6483173
      ]
    },
    {
      "bufferView": 5,
      "componentType": 5125,
      "count": 228,
      "type": "SCALAR",
      "max": [
        119.0
      ],
      "min": [
        0.0
      ]
    },
    {
      "bufferView": 6,
      "componentType": 5126,
      "count": 120,
      "type": "VEC3",
      "max": [
        1.0,
        1.0,
        1.0
      ],
      "min": [
        -1.0,
        -1.0,
        -1.0
      ]
    },
    {
      "bufferView": 7,
      "componentType": 5126,
      "count": 120,
      "type": "VEC2",
      "max": [
        1.0,
        1.0
      ],
      "min": [
        0.0,
        0.0
      ]
    },
    {
      "bufferView": 8,
      "componentType": 5126,
      "count": 120,
      "type": "VEC3",
      "max": [
        -64.6336441,
        40.78226,
        3.3866086
      ],
      "min": [
        -99.93788,
        -1.28578269,
        -18.7006283
      ]
    },
    {
      "bufferView": 9,
      "componentType": 5125,
      "count": 228,
      "type": "SCALAR",
      "max": [
        119.0
      ],
      "min": [
        0.0
      ]
    },
    {
      "bufferView": 10,
      "componentType": 5126,
      "count": 120,
      "type": "VEC3",
      "max": [
        1.0,
        1.0,
        1.0
      ],
      "min": [
        -1.0,
        -1.0,
        -1.0
      ]
    },
    {
      "bufferView": 11,
      "componentType": 5126,
      "count": 120,
      "type": "VEC2",
      "max": [
        1.0,
        1.0
      ],
      "min": [
        0.0,
        0.0
      ]
    },
    {
      "bufferView": 12,
      "componentType": 5126,
      "count": 712,
      "type": "VEC3",
      "max": [
        47.6974335,
        -13.934453,
        9.479639
      ],
      "min": [
        -2.61643839,
        -57.78226,
        -12.6075974
      ]
    },
    {
      "bufferView": 13,
      "componentType": 5125,
      "count": 1992,
      "type": "SCALAR",
      "max": [
        711.0
      ],
      "min": [
        0.0
      ]
    },
    {
      "bufferView": 14,
      "componentType": 5126,
      "count": 712,
      "type": "VEC3",
      "max": [
        1.0,
        1.0,
        1.0
      ],
      "min": [
        -1.0,
        -1.0,
        -1.0
      ]
    },
    {
      "bufferView": 15,
      "componentType": 5126,
      "count": 712,
      "type": "VEC2",
      "max": [
        1.0,
        1.0
      ],
      "min": [
        0.0,
        0.0
      ]
    },
    {
      "bufferView": 16,
      "componentType": 5126,
      "count": 168,
      "type": "VEC3",
      "max": [
        -57.71207,
        -14.8241587,
        -9.561082
      ],
      "min": [
        -100.22744,
        -56.8922043,
        -31.6483173
      ]
    },
    {
      "bufferView": 17,
      "componentType": 5125,
      "count": 324,
      "type": "SCALAR",
      "max": [
        167.0
      ],
      "min": [
        0.0
      ]
    },
    {
      "bufferView": 18,
      "componentType": 5126,
      "count": 168,
      "type": "VEC3",
      "max": [
        1.0,
        1.0,
        1.0
      ],
      "min": [
        -1.0,
        -1.0,
        -1.0
      ]
    },
    {
      "bufferView": 19,
      "componentType": 5126,
      "count": 168,
      "type": "VEC2",
      "max": [
        1.0,
        1.0
      ],
      "min": [
        0.0,
        0.0
      ]
    },
    {
      "bufferView": 20,
      "componentType": 5126,
      "count": 712,
      "type": "VEC3",
      "max": [
        -4.368121,
        -13.934453,
        -0.8023499
      ],
      "min": [
        -54.68199,
        -57.78226,
        -22.8895855
      ]
    },
    {
      "bufferView": 21,
      "componentType": 5125,
      "count": 1992,
      "type": "SCALAR",
      "max": [
        711.0
      ],
      "min": [
        0.0
      ]
    },
    {
      "bufferView": 22,
      "componentType": 5126,
      "count": 712,
      "type": "VEC3",
      "max": [
        1.0,
        1.0,
        1.0
      ],
      "min": [
        -1.0,
        -1.0,
        -1.0
      ]
    },
    {
      "bufferView": 23,
      "componentType": 5126,
      "count": 712,
      "type": "VEC2",
      "max": [
        1.0,
        1.0
      ],
      "min": [
        0.0,
        0.0
      ]
    },
    {
      "bufferView": 24,
      "componentType": 5126,
      "count": 468,
      "type": "VEC3",
      "max": [
        93.74351,
        -14.8241587,
        19.0
      ],
      "min": [
        50.4569664,
        -56.8922043,
        -3.0872364
      ]
    },
    {
      "bufferView": 25,
      "componentType": 5125,
      "count": 1236,
      "type": "SCALAR",
      "max": [
        467.0
      ],
      "min": [
        0.0
      ]
    },
    {
      "bufferView": 26,
      "componentType": 5126,
      "count": 468,
      "type": "VEC3",
      "max": [
        1.0,
        1.0,
        1.0
      ],
      "min": [
        -1.0,
        -1.0,
        -1.0
      ]
    },
    {
      "bufferView": 27,
      "componentType": 5126,
      "count": 468,
      "type": "VEC2",
      "max": [
        1.0,
        1.0
      ],
      "min": [
        0.0,
        0.0
      ]
    }
  ],
  "asset": {
    "version": "2.0"
  },
  "buffers": [
    {
      "uri": "data:application/octet-stream;base64,",
      "byteLength": 2016
    },
    {
      "uri": "data:application/octet-stream;base64,",
      "byteLength": 1296
    },
    {
      "uri": "data:application/octet-stream;base64,",
      "byteLength": 2016
    },
    {
      "uri": "data:application/octet-stream;base64,",
      "byteLength": 1344
    },
    {
      "uri": "data:application/octet-stream;base64,",
      "byteLength": 1440
    },
    {
      "uri": "data:application/octet-stream;base64,",
      "byteLength": 912
    },
    {
      "uri": "data:application/octet-stream;base64,",
      "byteLength": 1440
    },
    {
      "uri": "data:application/octet-stream;base64,",
      "byteLength": 960
    },
    {
      "uri": "data:application/octet-stream;base64,",
      "byteLength": 1440
    },
    {
      "uri": "data:application/octet-stream;base64,",
      "byteLength": 912
    },
    {
      "uri": "data:application/octet-stream;base64,",
      "byteLength": 1440
    },
    {
      "uri": "data:application/octet-stream;base64,",
      "byteLength": 960
    },
    {
      "uri": "data:application/octet-stream;base64,",
      "byteLength": 8544
    },
    {
      "uri": "data:application/octet-stream;base64,",
      "byteLength": 7968
    },
    {
      "uri": "data:application/octet-stream;base64,",
      "byteLength": 8544
    },
    {
      "uri": "data:application/octet-stream;base64,",
      "byteLength": 5696
    },
    {
      "uri": "data:application/octet-stream;base64,",
      "byteLength": 2016
    },
    {
      "uri": "data:application/octet-stream;base64,",
      "byteLength": 1296
    },
    {
      "uri": "data:application/octet-stream;base64,",
      "byteLength": 2016
    },
    {
      "uri": "data:application/octet-stream;base64,",
      "byteLength": 1344
    },
    {
      "uri": "data:application/octet-stream;base64,",
      "byteLength": 8544
    },
    {
      "uri": "data:application/octet-stream;base64,",
      "byteLength": 7968
    },
    {
      "uri": "data:application/octet-stream;base64,",
      "byteLength": 8544
    },
    {
      "uri": "data:application/octet-stream;base64,",
      "byteLength": 5696
    },
    {
      "uri": "data:application/octet-stream;base64,",
      "byteLength": 5616
    },
    {
      "uri": "data:application/octet-stream;base64,",
      "byteLength": 4944
    },
    {
      "uri": "data:application/octet-stream;base64,",
      "byteLength": 5616
    },
    {
      "uri": "data:application/octet-stream;base64,",
      "byteLength": 3744
    }
  ],
  "bufferViews": [
    {
      "buffer": 0,
      "byteLength": 2016,
      "target": 34962
    },
    {
      "buffer": 1,
      "byteLength": 1296,
      "target": 34963
    },
    {
      "buffer": 2,
      "byteLength": 2016,
      "target": 34962
    },
    {
      "buffer": 3,
      "byteLength": 1344,
      "target": 34962
    },
    {
      "buffer": 4,
      "byteLength": 1440,
      "target": 34962
    },
    {
      "buffer": 5,
      "byteLength": 912,
      "target": 34963
    },
    {
      "buffer": 6,
      "byteLength": 1440,
      "target": 34962
    },
    {
      "buffer": 7,
      "byteLength": 960,
      "target": 34962
    },
    {
      "buffer": 8,
      "byteLength": 1440,
      "target": 34962
    },
    {
      "buffer": 9,
      "byteLength": 912,
      "target": 34963
    },
    {
      "buffer": 10,
      "byteLength": 1440,
      "target": 34962
    },
    {
      "buffer": 11,
      "byteLength": 960,
      "target": 34962
    },
    {
      "buffer": 12,
      "byteLength": 8544,
      "target": 34962
    },
    {
      "buffer": 13,
      "byteLength": 7968,
      "target": 34963
    },
    {
      "buffer": 14,
      "byteLength": 8544,
      "target": 34962
    },
    {
      "buffer": 15,
      "byteLength": 5696,
      "target": 34962
    },
    {
      "buffer": 16,
      "byteLength": 2016,
      "target": 34962
    },
    {
      "buffer": 17,
      "byteLength": 1296,
      "target": 34963
    },
    {
      "buffer": 18,
      "byteLength": 2016,
      "target": 34962
    },
    {
      "buffer": 19,
      "byteLength": 1344,
      "target": 34962
    },
    {
      "buffer": 20,
      "byteLength": 8544,
      "target": 34962
    },
    {
      "buffer": 21,
      "byteLength": 7968,
      "target": 34963
    },
    {
      "buffer": 22,
      "byteLength": 8544,
      "target": 34962
    },
    {
      "buffer": 23,
      "byteLength": 5696,
      "target": 34962
    },
    {
      "buffer": 24,
      "byteLength": 5616,
      "target": 34962
    },
    {
      "buffer": 25,
      "byteLength": 4944,
      "target": 34963
    },
    {
      "buffer": 26,
      "byteLength": 5616,
      "target": 34962
    },
    {
      "buffer": 27,
      "byteLength": 3744,
      "target": 34962
    }
  ],
  "materials": [
    {
      "pbrMetallicRoughness": {
        "baseColorFactor": [
          0.0,
          0.0,
          0.0,
          1.0
        ]
      }
    },
    {
      "pbrMetallicRoughness": {
        "baseColorFactor": [
          0.0,
          0.0,
          0.0,
          1.0
        ]
      }
    },
    {
      "pbrMetallicRoughness": {
        "baseColorFactor": [
          0.0,
          0.0,
          0.0,
          1.0
        ]
      }
    },
    {
      "pbrMetallicRoughness": {
        "baseColorFactor": [
          0.0,
          0.0,
          0.0,
          1.0
        ]
      }
    },
    {
      "pbrMetallicRoughness": {
        "baseColorFactor": [
          0.0,
          0.0,
          0.0,
          1.0
        ]
      }
    },
    {
      "pbrMetallicRoughness": {
        "baseColorFactor": [
          0.0,
          0.0,
          0.0,
          1.0
        ]
      }
    },
    {
      "pbrMetallicRoughness": {
        "baseColorFactor": [
          0.0,
          0.0,
          0.0,
          1.0
        ]
      }
    }
  ],
  "meshes": [
    {
      "primitives": [
        {
          "attributes": {
            "POSITION": 0,
            "NORMAL": 2,
            "TEXCOORD_0": 3
          },
          "indices": 1,
          "material": 0
        }
      ]
    },
    {
      "primitives": [
        {
          "attributes": {
            "POSITION": 4,
            "NORMAL": 6,
            "TEXCOORD_0": 7
          },
          "indices": 5,
          "material": 1
        }
      ]
    },
    {
      "primitives": [
        {
          "attributes": {
            "POSITION": 8,
            "NORMAL": 10,
            "TEXCOORD_0": 11
          },
          "indices": 9,
          "material": 2
        }
      ]
    },
    {
      "primitives": [
        {
          "attributes": {
            "POSITION": 12,
            "NORMAL": 14,
            "TEXCOORD_0": 15
          },
          "indices": 13,
          "material": 3
        }
      ]
    },
    {
      "primitives": [
        {
          "attributes": {
            "POSITION": 16,
            "NORMAL": 18,
            "TEXCOORD_0": 19
          },
          "indices": 17,
          "material": 4
        }
      ]
    },
    {
      "primitives": [
        {
          "attributes": {
            "POSITION": 20,
            "NORMAL": 22,
            "TEXCOORD_0": 23
          },
          "indices": 21,
          "material": 5
        }
      ]
    },
    {
      "primitives": [
        {
          "attributes": {
            "POSITION": 24,
            "NORMAL": 26,
            "TEXCOORD_0": 27
          },
          "indices": 25,
          "material": 6
        }
      ]
    }
  ],
  "nodes": [
    {
      "mesh": 0
    },
    {
      "mesh": 1
    },
    {
      "mesh": 2
    },
    {
      "mesh": 3
    },
    {
      "mesh": 4
    },
    {
      "mesh": 5
    },
    {
      "mesh": 6
    }
  ],
  "samplers": [
    {
      "magFilter": 9729,
      "minFilter": 9729
    }
  ],
  "scene": 0,
  "scenes": [
    {
      "nodes": [
        0,
        1,
        2,
        3,
        4,
        5,
        6
      ],
      "extensions": {}
    }
  ],
  "extensions": {}
}