{
  "accessors": [
    {
      "bufferView": 2,
      "componentType": 5126,
      "count": 84,
      "max": [
        0.23488250374794006,
        0.0015528966905549169,
        0.06302935630083084
      ],
      "min": [
        -0.23488251864910126,
        -0.0012453367235139012,
        -0.07047785818576813
      ],
      "type": "VEC3"
    },
    {
      "bufferView": 2,
      "byteOffset": 1008,
      "componentType": 5126,
      "count": 84,
      "max": [
        1.0,
        1.0,
        1.0
      ],
      "min": [
        -1.0,
        -1.0,
        -1.0
      ],
      "type": "VEC3"
    },
    {
      "bufferView": 1,
      "componentType": 5126,
      "count": 84,
      "max": [
        0.9196346998214722,
        0.9450617432594299
      ],
      "min": [
        0.08167273551225662,
        0.0431501567363739
      ],
      "type": "VEC2"
    },
    {
      "bufferView": 0,
      "componentType": 5125,
      "count": 132,
      "type": "SCALAR"
    },
    {
      "bufferView": 2,
      "byteOffset": 2016,
      "componentType": 5126,
      "count": 4452,
      "max": [
        0.867587685585022,
        1.3034172058105469,
        1.5406880378723145
      ],
      "min": [
        -0.867587685585022,
        -1.3793398141860962,
        0.18755410611629486
      ],
      "type": "VEC3"
    },
    {
      "bufferView": 2,
      "byteOffset": 55440,
      "componentType": 5126,
      "count": 4452,
      "max": [
        1.0,
        1.0,
        1.0
      ],
      "min": [
        -1.0,
        -1.0,
        -1.0
      ],
      "type": "VEC3"
    },
    {
      "bufferView": 1,
      "byteOffset": 672,
      "componentType": 5126,
      "count": 4452,
      "max": [
        0.9242535829544067,
        0.9809244275093079
      ],
      "min": [
        0.038519710302352905,
        0.002879377454519272
      ],
      "type": "VEC2"
    },
    {
      "bufferView": 0,
      "byteOffset": 528,
      "componentType": 5125,
      "count": 14700,
      "type": "SCALAR"
    },
    {
      "bufferView": 2,
      "byteOffset": 108864,
      "componentType": 5126,
      "count": 4452,
      "max": [
        0.867587685585022,
        1.3034172058105469,
        1.5406880378723145
      ],
      "min": [
        -0.867587685585022,
        -1.3793398141860962,
        0.18755410611629486
      ],
      "type": "VEC3"
    },
    {
      "bufferView": 2,
      "byteOffset": 162288,
      "componentType": 5126,
      "count": 4452,
      "max": [
        1.0,
        1.0,
        1.0
      ],
      "min": [
        -1.0,
        -1.0,
        -1.0
      ],
      "type": "VEC3"
    },
    {
      "bufferView": 1,
      "byteOffset": 36288,
      "componentType": 5126,
      "count": 4452,
      "max": [
        0.9242535829544067,
        0.9809244275093079
      ],
      "min": [
        0.038519710302352905,
        0.002879377454519272
      ],
      "type": "VEC2"
    },
    {
      "bufferView": 0,
      "byteOffset": 59328,
      "componentType": 5125,
      "count": 14700,
      "type": "SCALAR"
    },
    {
      "bufferView": 2,
      "byteOffset": 215712,
      "componentType": 5126,
      "count": 160,
      "max": [
        0.0937151312828064,
        0.2949069142341614,
        0.29488635063171387
      ],
      "min": [
        -0.10203611850738525,
        -0.2948632836341858,
        -0.2948838472366333
      ],
      "type": "VEC3"
    },
    {
      "bufferView": 2,
      "byteOffset": 217632,
      "componentType": 5126,
      "count": 160,
      "max": [
        1.0,
        1.0,
        1.0
      ],
      "min": [
        -1.0,
        -1.0,
        -0.9999171495437622
      ],
      "type": "VEC3"
    },
    {
      "bufferView": 1,
      "byteOffset": 71904,
      "componentType": 5126,
      "count": 160,
      "max": [
        0.4926260709762573,
        0.12164846062660217
      ],
      "min": [
        0.14158660173416138,
        0.003049701452255249
      ],
      "type": "VEC2"
    },
    {
      "bufferView": 0,
      "byteOffset": 118128,
      "componentType": 5125,
      "count": 468,
      "type": "SCALAR"
    },
    {
      "bufferView": 2,
      "byteOffset": 219552,
      "componentType": 5126,
      "count": 160,
      "max": [
        0.10203605890274048,
        0.2949068546295166,
        0.29488641023635864
      ],
      "min": [
        -0.09371519088745117,
        -0.29486334323883057,
        -0.2948837876319885
      ],
      "type": "VEC3"
    },
    {
      "bufferView": 2,
      "byteOffset": 221472,
      "componentType": 5126,
      "count": 160,
      "max": [
        1.0,
        1.0,
        1.0
      ],
      "min": [
        -1.0,
        -1.0,
        -0.9999171495437622
      ],
      "type": "VEC3"
    },
    {
      "bufferView": 1,
      "byteOffset": 73184,
      "componentType": 5126,
      "count": 160,
      "max": [
        0.4926260709762573,
        0.12164846062660217
      ],
      "min": [
        0.14158660173416138,
        0.003049701452255249
      ],
      "type": "VEC2"
    },
    {
      "bufferView": 0,
      "byteOffset": 120000,
      "componentType": 5125,
      "count": 468,
      "type": "SCALAR"
    },
    {
      "bufferView": 2,
      "byteOffset": 223392,
      "componentType": 5126,
      "count": 160,
      "max": [
        0.10203629732131958,
        0.2949067950248718,
        0.29488635063171387
      ],
      "min": [
        -0.09371483325958252,
        -0.29486340284347534,
        -0.2948838472366333
      ],
      "type": "VEC3"
    },
    {
      "bufferView": 2,
      "byteOffset": 225312,
      "componentType": 5126,
      "count": 160,
      "max": [
        1.0,
        1.0,
        1.0
      ],
      "min": [
        -1.0,
        -1.0,
        -0.9999171495437622
      ],
      "type": "VEC3"
    },
    {
      "bufferView": 1,
      "byteOffset": 74464,
      "componentType": 5126,
      "count": 160,
      "max": [
        0.49249181151390076,
        0.12164846062660217
      ],
      "min": [
        0.14150556921958923,
        0.003049701452255249
      ],
      "type": "VEC2"
    },
    {
      "bufferView": 0,
      "byteOffset": 121872,
      "componentType": 5125,
      "count": 468,
      "type": "SCALAR"
    },
    {
      "bufferView": 2,
      "byteOffset": 227232,
      "componentType": 5126,
      "count": 160,
      "max": [
        0.09371477365493774,
        0.29490673542022705,
        0.29488641023635864
      ],
      "min": [
        -0.10203635692596436,
        -0.2948634624481201,
        -0.2948837876319885
      ],
      "type": "VEC3"
    },
    {
      "bufferView": 2,
      "byteOffset": 229152,
      "componentType": 5126,
      "count": 160,
      "max": [
        1.0,
        1.0,
        1.0
      ],
      "min": [
        -1.0,
        -1.0,
        -0.9999171495437622
      ],
      "type": "VEC3"
    },
    {
      "bufferView": 1,
      "byteOffset": 75744,
      "componentType": 5126,
      "count": 160,
      "max": [
        0.49249181151390076,
        0.12164846062660217
      ],
      "min": [
        0.14150556921958923,
        0.003049701452255249
      ],
      "type": "VEC2"
    },
    {
      "bufferView": 0,
      "byteOffset": 123744,
      "componentType": 5125,
      "count": 468,
      "type": "SCALAR"
    },
    {
      "bufferView": 2,
      "byteOffset": 231072,
      "componentType": 5126,
      "count": 84,
      "max": [
        0.23488250374794006,
        0.0015528966905549169,
        0.06302935630083084
      ],
      "min": [
        -0.23488251864910126,
        -0.0012453367235139012,
        -0.07047785818576813
      ],
      "type": "VEC3"
    },
    {
      "bufferView": 2,
      "byteOffset": 232080,
      "componentType": 5126,
      "count": 84,
      "max": [
        1.0,
        1.0,
        1.0
      ],
      "min": [
        -1.0,
        -1.0,
        -1.0
      ],
      "type": "VEC3"
    },
    {
      "bufferView": 1,
      "byteOffset": 77024,
      "componentType": 5126,
      "count": 84,
      "max": [
        0.9196346998214722,
        0.9450617432594299
      ],
      "min": [
        0.08167273551225662,
        0.0431501567363739
      ],
      "type": "VEC2"
    },
    {
      "bufferView": 0,
      "byteOffset": 125616,
      "componentType": 5125,
      "count": 132,
      "type": "SCALAR"
    }
  ],
  "asset": {
    "extras": {
      "author": "thcyrax (https://sketchfab.com/kitsunegraphics)",
      "license": "CC-BY-4.0 (http://creativecommons.org/licenses/by/4.0/)",
      "source": "https://sketchfab.com/3d-models/vehicle-smart-e3c882bacc604e2abe8784035af3fc75",
      "title": "Vehicle - Smart"
    },
    "generator": "Sketchfab-12.65.0",
    "version": "2.0"
  },
  "bufferViews": [
    {
      "buffer": 0,
      "byteLength": 126144,
      "name": "floatBufferViews",
      "target": 34963
    },
    {
      "buffer": 0,
      "byteLength": 77696,
      "byteOffset": 126144,
      "byteStride": 8,
      "name": "floatBufferViews",
      "target": 34962
    },
    {
      "buffer": 0,
      "byteLength": 233088,
      "byteOffset": 203840,
      "byteStride": 12,
      "name": "floatBufferViews",
      "target": 34962
    }
  ],
  "buffers": [
    {
      "byteLength": 436928,
      "uri": "scene.bin"
    }
  ],
  "images": [
    {
      "uri": "textures/Matricula_baseColor.png"
    },
    {
      "uri": "textures/Vehicle_baseColor.png"
    }
  ],
  "materials": [
    {
      "doubleSided": true,
      "name": "Matricula",
      "pbrMetallicRoughness": {
        "baseColorTexture": {
          "index": 0
        },
        "metallicFactor": 0.0,
        "roughnessFactor": 0.6
      }
    },
    {
      "doubleSided": true,
      "name": "Vehicle",
      "pbrMetallicRoughness": {
        "baseColorTexture": {
          "index": 1
        },
        "metallicFactor": 0.0,
        "roughnessFactor": 0.7
      }
    }
  ],
  "meshes": [
    {
      "name": "Circle.000_Matricula_0",
      "primitives": [
        {
          "attributes": {
            "NORMAL": 1,
            "POSITION": 0,
            "TEXCOORD_0": 2
          },
          "indices": 3,
          "material": 0,
          "mode": 4
        }
      ]
    },
    {
      "name": "Body.002_Vehicle_0",
      "primitives": [
        {
          "attributes": {
            "NORMAL": 5,
            "POSITION": 4,
            "TEXCOORD_0": 6
          },
          "indices": 7,
          "material": 1,
          "mode": 4
        }
      ]
    },
    {
      "name": "Body.001_Vehicle_0",
      "primitives": [
        {
          "attributes": {
            "NORMAL": 9,
            "POSITION": 8,
            "TEXCOORD_0": 10
          },
          "indices": 11,
          "material": 1,
          "mode": 4
        }
      ]
    },
    {
      "name": "RRW.001_Vehicle_0",
      "primitives": [
        {
          "attributes": {
            "NORMAL": 13,
            "POSITION": 12,
            "TEXCOORD_0": 14
          },
          "indices": 15,
          "material": 1,
          "mode": 4
        }
      ]
    },
    {
      "name": "RLW.001_Vehicle_0",
      "primitives": [
        {
          "attributes": {
            "NORMAL": 17,
            "POSITION": 16,
            "TEXCOORD_0": 18
          },
          "indices": 19,
          "material": 1,
          "mode": 4
        }
      ]
    },
    {
      "name": "FLW.001_Vehicle_0",
      "primitives": [
        {
          "attributes": {
            "NORMAL": 21,
            "POSITION": 20,
            "TEXCOORD_0": 22
          },
          "indices": 23,
          "material": 1,
          "mode": 4
        }
      ]
    },
    {
      "name": "FRW.001_Vehicle_0",
      "primitives": [
        {
          "attributes": {
            "NORMAL": 25,
            "POSITION": 24,
            "TEXCOORD_0": 26
          },
          "indices": 27,
          "material": 1,
          "mode": 4
        }
      ]
    },
    {
      "name": "Circle.001_Matricula_0",
      "primitives": [
        {
          "attributes": {
            "NORMAL": 29,
            "POSITION": 28,
            "TEXCOORD_0": 30
          },
          "indices": 31,
          "material": 0,
          "mode": 4
        }
      ]
    }
  ],
  "nodes": [
    {
      "children": [
        1
      ],
      "matrix": [
        1.0,
        0.0,
        0.0,
        0.0,
        0.0,
        2.220446049250313e-16,
        -1.0,
        0.0,
        0.0,
        1.0,
        2.220446049250313e-16,
        0.0,
        0.0,
        0.0,
        0.0,
        1.0
      ],
      "name": "Sketchfab_model"
    },
    {
      "children": [
        2
      ],
      "matrix": [
        1.0,
        0.0,
        0.0,
        0.0,
        0.0,
        0.0,
        1.0,
        0.0,
        0.0,
        -1.0,
        0.0,
        0.0,
        0.0,
        0.0,
        0.0,
        1.0
      ],
      "name": "969a64b8404b4f8ea3c289c22b494100.fbx"
    },
    {
      "children": [
        3,
        5,
        7,
        9,
        11,
        13,
        15,
        17
      ],
      "name": "RootNode"
    },
    {
      "children": [
        4
      ],
      "matrix": [
        99.99999999997857,
        -6.124806617434444e-06,
        6.516827397717403e-05,
        0.0,
        6.545544293073612e-05,
        9.428229180207893,
        -99.55455034563309,
        0.0,
        -4.669053582731252e-08,
        99.55455034565442,
        9.428229180209879,
        0.0,
        -1.4901161193847656e-06,
        85.26832580566406,
        -121.68382263183594,
        1.0
      ],
      "name": "Circle.000"
    },
    {
      "mesh": 0,
      "name": "Circle.000_Matricula_0"
    },
    {
      "children": [
        6
      ],
      "matrix": [
        100.0,
        0.0,
        0.0,
        0.0,
        0.0,
        -1.629206793918314e-05,
        -99.99999999999868,
        0.0,
        0.0,
        99.99999999999868,
        -1.629206793918314e-05,
        0.0,
        0.0,
        0.0,
        0.0,
        1.0
      ],
      "name": "Body.002"
    },
    {
      "mesh": 1,
      "name": "Body.002_Vehicle_0"
    },
    {
      "children": [
        8
      ],
      "matrix": [
        100.0,
        0.0,
        0.0,
        0.0,
        0.0,
        -1.629206793918314e-05,
        -99.99999999999868,
        0.0,
        0.0,
        99.99999999999868,
        -1.629206793918314e-05,
        0.0,
        0.0,
        0.0,
        0.0,
        1.0
      ],
      "name": "Body.001"
    },
    {
      "mesh": 2,
      "name": "Body.001_Vehicle_0"
    },
    {
      "children": [
        10
      ],
      "matrix": [
        100.0,
        0.0,
        0.0,
        0.0,
        -0.0,
        -1.629206793918314e-05,
        -99.99999999999868,
        0.0,
        0.0,
        99.99999999999868,
        -1.629206793918314e-05,
        0.0,
        -67.78646087646484,
        29.488384246826172,
        -90.83636474609375,
        1.0
      ],
      "name": "RRW.001"
    },
    {
      "mesh": 3,
      "name": "RRW.001_Vehicle_0"
    },
    {
      "children": [
        12
      ],
      "matrix": [
        100.0,
        0.0,
        0.0,
        0.0,
        0.0,
        -1.629206793918314e-05,
        -99.99999999999868,
        0.0,
        0.0,
        99.99999999999868,
        -1.629206793918314e-05,
        0.0,
        67.78646850585938,
        29.488378524780273,
        -90.83637237548828,
        1.0
      ],
      "name": "RLW.001"
    },
    {
      "mesh": 4,
      "name": "RLW.001_Vehicle_0"
    },
    {
      "children": [
        14
      ],
      "matrix": [
        86.60253964992069,
        5.551115123125783e-15,
        50.00000126183913,
        0.0,
        50.000001261839074,
        -4.371139006309477e-06,
        -86.60253964992062,
        0.0,
        2.1855695475636594e-06,
        99.99999999999991,
        -3.785517388443793e-06,
        0.0,
        62.584930419921875,
        29.488384246826172,
        94.72866821289063,
        1.0
      ],
      "name": "FLW.001"
    },
    {
      "mesh": 5,
      "name": "FLW.001_Vehicle_0"
    },
    {
      "children": [
        16
      ],
      "matrix": [
        86.60253964992069,
        5.551115123125783e-15,
        50.00000126183913,
        0.0,
        50.000001261839074,
        -4.371139006309477e-06,
        -86.60253964992062,
        0.0,
        2.1855695475636594e-06,
        99.99999999999991,
        -3.785517388443793e-06,
        0.0,
        -62.584922790527344,
        29.488378524780273,
        94.7286605834961,
        1.0
      ],
      "name": "FRW.001"
    },
    {
      "mesh": 6,
      "name": "FRW.001_Vehicle_0"
    },
    {
      "children": [
        18
      ],
      "matrix": [
        -99.99999999999241,
        1.2246465878873718e-14,
        -3.894143777553012e-05,
        0.0,
        -3.894143777553e-05,
        7.549789982075339e-06,
        99.99999999999213,
        0.0,
        2.9522432265841658e-12,
        99.9999999999997,
        -7.549789970973109e-06,
        0.0,
        -1.4901161193847656e-06,
        43.42476272583008,
        138.21347045898438,
        1.0
      ],
      "name": "Circle.001"
    },
    {
      "mesh": 7,
      "name": "Circle.001_Matricula_0"
    }
  ],
  "samplers": [
    {
      "magFilter": 9729,
      "minFilter": 9729,
      "wrapS": 10497,
      "wrapT": 10497
    },
    {
      "magFilter": 9729,
      "minFilter": 9987,
      "wrapS": 10497,
      "wrapT": 10497
    }
  ],
  "scene": 0,
  "scenes": [
    {
      "name": "Sketchfab_Scene",
      "nodes": [
        0
      ]
    }
  ],
  "textures": [
    {
      "sampler": 0,
      "source": 0
    },
    {
      "sampler": 1,
      "source": 1
    }
  ]
}
