{
  "accessors": [
    {
      "bufferView": 0,
      "componentType": 5126,
      "count": 198,
      "type": "VEC3",
      "max": [
        -12.3244038,
        4.84625864,
        2.62276459
      ],
      "min": [
        -14.6274242,
        -0.4791341,
        -1.763144
      ]
    },
    {
      "bufferView": 1,
      "componentType": 5125,
      "count": 576,
      "type": "SCALAR",
      "max": [
        197.0
      ],
      "min": [
        0.0
      ]
    },
    {
      "bufferView": 2,
      "componentType": 5126,
      "count": 198,
      "type": "VEC3",
      "max": [
        1.0,
        0.999459565,
        1.0
      ],
      "min": [
        -1.0,
        -1.0,
        -1.0
      ]
    },
    {
      "bufferView": 3,
      "componentType": 5126,
      "count": 198,
      "type": "VEC2",
      "max": [
        1.0,
        1.0
      ],
      "min": [
        0.0,
        0.0
      ]
    },
    {
      "bufferView": 4,
      "componentType": 5126,
      "count": 212,
      "type": "VEC3",
      "max": [
        -5.25263834,
        2.24603581,
        2.62276459
      ],
      "min": [
        -9.415484,
        -0.4808597,
        -1.763144
      ]
    },
    {
      "bufferView": 5,
      "componentType": 5125,
      "count": 612,
      "type": "SCALAR",
      "max": [
        211.0
      ],
      "min": [
        0.0
      ]
    },
    {
      "bufferView": 6,
      "componentType": 5126,
      "count": 212,
      "type": "VEC3",
      "max": [
        0.999542,
        1.0,
        1.0
      ],
      "min": [
        -1.0,
        -1.0,
        -1.0
      ]
    },
    {
      "bufferView": 7,
      "componentType": 5126,
      "count": 212,
      "type": "VEC2",
      "max": [
        1.0,
        1.0
      ],
      "min": [
        0.0,
        0.0
      ]
    },
    {
      "bufferView": 8,
      "componentType": 5126,
      "count": 212,
      "type": "VEC3",
      "max": [
        -0.7162854,
        2.24603581,
        2.62276459
      ],
      "min": [
        -4.879132,
        -0.4808597,
        -1.763144
      ]
    },
    {
      "bufferView": 9,
      "componentType": 5125,
      "count": 612,
      "type": "SCALAR",
      "max": [
        211.0
      ],
      "min": [
        0.0
      ]
    },
    {
      "bufferView": 10,
      "componentType": 5126,
      "count": 212,
      "type": "VEC3",
      "max": [
        0.999542,
        1.0,
        1.0
      ],
      "min": [
        -1.0,
        -1.0,
        -1.0
      ]
    },
    {
      "bufferView": 11,
      "componentType": 5126,
      "count": 212,
      "type": "VEC2",
      "max": [
        1.0,
        1.0
      ],
      "min": [
        0.0,
        0.0
      ]
    },
    {
      "bufferView": 12,
      "componentType": 5126,
      "count": 216,
      "type": "VEC3",
      "max": [
        2.20819426,
        4.93809938,
        2.62276459
      ],
      "min": [
        -0.458038777,
        -0.55219084,
        -1.763144
      ]
    },
    {
      "bufferView": 13,
      "componentType": 5125,
      "count": 624,
      "type": "SCALAR",
      "max": [
        215.0
      ],
      "min": [
        0.0
      ]
    },
    {
      "bufferView": 14,
      "componentType": 5126,
      "count": 216,
      "type": "VEC3",
      "max": [
        1.0,
        0.9995748,
        1.0
      ],
      "min": [
        -1.0,
        -0.9995748,
        -1.0
      ]
    },
    {
      "bufferView": 15,
      "componentType": 5126,
      "count": 216,
      "type": "VEC2",
      "max": [
        1.0,
        1.0
      ],
      "min": [
        0.0,
        0.0
      ]
    },
    {
      "bufferView": 16,
      "componentType": 5126,
      "count": 198,
      "type": "VEC3",
      "max": [
        -9.827621,
        4.84625864,
        2.62276459
      ],
      "min": [
        -12.1306419,
        -0.4791341,
        -1.763144
      ]
    },
    {
      "bufferView": 17,
      "componentType": 5125,
      "count": 576,
      "type": "SCALAR",
      "max": [
        197.0
      ],
      "min": [
        0.0
      ]
    },
    {
      "bufferView": 18,
      "componentType": 5126,
      "count": 198,
      "type": "VEC3",
      "max": [
        1.0,
        0.999459565,
        1.0
      ],
      "min": [
        -1.0,
        -1.0,
        -1.0
      ]
    },
    {
      "bufferView": 19,
      "componentType": 5126,
      "count": 198,
      "type": "VEC2",
      "max": [
        1.0,
        1.0
      ],
      "min": [
        0.0,
        0.0
      ]
    },
    {
      "bufferView": 20,
      "componentType": 5126,
      "count": 208,
      "type": "VEC3",
      "max": [
        -5.3926754,
        4.88517046,
        2.62276459
      ],
      "min": [
        -9.433046,
        2.38964319,
        -1.763144
      ]
    },
    {
      "bufferView": 21,
      "componentType": 5125,
      "count": 600,
      "type": "SCALAR",
      "max": [
        207.0
      ],
      "min": [
        0.0
      ]
    },
    {
      "bufferView": 22,
      "componentType": 5126,
      "count": 208,
      "type": "VEC3",
      "max": [
        0.9994849,
        1.0,
        1.0
      ],
      "min": [
        -1.0,
        -1.0,
        -1.0
      ]
    },
    {
      "bufferView": 23,
      "componentType": 5126,
      "count": 208,
      "type": "VEC2",
      "max": [
        1.0,
        1.0
      ],
      "min": [
        0.0,
        0.0
      ]
    },
    {
      "bufferView": 24,
      "componentType": 5126,
      "count": 208,
      "type": "VEC3",
      "max": [
        -0.8563223,
        4.88517046,
        2.62276459
      ],
      "min": [
        -4.89669275,
        2.38964319,
        -1.763144
      ]
    },
    {
      "bufferView": 25,
      "componentType": 5125,
      "count": 600,
      "type": "SCALAR",
      "max": [
        207.0
      ],
      "min": [
        0.0
      ]
    },
    {
      "bufferView": 26,
      "componentType": 5126,
      "count": 208,
      "type": "VEC3",
      "max": [
        0.9994849,
        1.0,
        1.0
      ],
      "min": [
        -1.0,
        -1.0,
        -1.0
      ]
    },
    {
      "bufferView": 27,
      "componentType": 5126,
      "count": 208,
      "type": "VEC2",
      "max": [
        1.0,
        1.0
      ],
      "min": [
        0.0,
        0.0
      ]
    },
    {
      "bufferView": 28,
      "componentType": 5126,
      "count": 216,
      "type": "VEC3",
      "max": [
        5.034587,
        4.93845654,
        2.62276459
      ],
      "min": [
        2.35500741,
        -0.5525477,
        -1.763144
      ]
    },
    {
      "bufferView": 29,
      "componentType": 5125,
      "count": 624,
      "type": "SCALAR",
      "max": [
        215.0
      ],
      "min": [
        0.0
      ]
    },
    {
      "bufferView": 30,
      "componentType": 5126,
      "count": 216,
      "type": "VEC3",
      "max": [
        1.0,
        0.9997047,
        1.0
      ],
      "min": [
        -1.0,
        -0.9997047,
        -1.0
      ]
    },
    {
      "bufferView": 31,
      "componentType": 5126,
      "count": 216,
      "type": "VEC2",
      "max": [
        1.0,
        1.0
      ],
      "min": [
        0.0,
        0.0
      ]
    },
    {
      "bufferView": 32,
      "componentType": 5126,
      "count": 4,
      "type": "VEC3",
      "max": [
        -12.1306419,
        4.3859086,
        3.1237905
      ],
      "min": [
        -12.1306419,
        0.0,
        3.10189867
      ]
    },
    {
      "bufferView": 33,
      "componentType": 5125,
      "count": 6,
      "type": "SCALAR",
      "max": [
        3.0
      ],
      "min": [
        0.0
      ]
    },
    {
      "bufferView": 34,
      "componentType": 5126,
      "count": 4,
      "type": "VEC3",
      "max": [
        -1.0,
        0.0,
        0.0
      ],
      "min": [
        -1.0,
        0.0,
        0.0
      ]
    },
    {
      "bufferView": 35,
      "componentType": 5126,
      "count": 4,
      "type": "VEC2",
      "max": [
        1.0,
        1.0
      ],
      "min": [
        0.0,
        0.0
      ]
    },
    {
      "bufferView": 36,
      "componentType": 5126,
      "count": 4,
      "type": "VEC3",
      "max": [
        -12.3244038,
        4.3859086,
        3.1237905
      ],
      "min": [
        -12.3244038,
        0.0,
        3.10189867
      ]
    },
    {
      "bufferView": 37,
      "componentType": 5125,
      "count": 6,
      "type": "SCALAR",
      "max": [
        3.0
      ],
      "min": [
        0.0
      ]
    },
    {
      "bufferView": 38,
      "componentType": 5126,
      "count": 4,
      "type": "VEC3",
      "max": [
        -1.0,
        0.0,
        0.0
      ],
      "min": [
        -1.0,
        0.0,
        0.0
      ]
    },
    {
      "bufferView": 39,
      "componentType": 5126,
      "count": 4,
      "type": "VEC2",
      "max": [
        1.0,
        1.0
      ],
      "min": [
        0.0,
        0.0
      ]
    }
  ],
  "asset": {
    "version": "2.0"
  },
  "buffers": [
    {
      "uri": "data:application/octet-stream;base64,",
      "byteLength": 2376
    },
    {
      "uri": "data:application/octet-stream;base64,",
      "byteLength": 2304
    },
    {
      "uri": "data:application/octet-stream;base64,",
      "byteLength": 2376
    },
    {
      "uri": "data:application/octet-stream;base64,",
      "byteLength": 1584
    },
    {
      "uri": "data:application/octet-stream;base64,",
      "byteLength": 2544
    },
    {
      "uri": "data:application/octet-stream;base64,",
      "byteLength": 2448
    },
    {
      "uri": "data:application/octet-stream;base64,",
      "byteLength": 2544
    },
    {
      "uri": "data:application/octet-stream;base64,",
      "byteLength": 1696
    },
    {
      "uri": "data:application/octet-stream;base64,",
      "byteLength": 2544
    },
    {
      "uri": "data:application/octet-stream;base64,",
      "byteLength": 2448
    },
    {
      "uri": "data:application/octet-stream;base64,",
      "byteLength": 2544
    },
    {
      "uri": "data:application/octet-stream;base64,",
      "byteLength": 1696
    },
    {
      "uri": "data:application/octet-stream;base64,",
      "byteLength": 2592
    },
    {
      "uri": "data:application/octet-stream;base64,",
      "byteLength": 2496
    },
    {
      "uri": "data:application/octet-stream;base64,",
      "byteLength": 2592
    },
    {
      "uri": "data:application/octet-stream;base64,",
      "byteLength": 1728
    },
    {
      "uri": "data:application/octet-stream;base64,",
      "byteLength": 2376
    },
    {
      "uri": "data:application/octet-stream;base64,",
      "byteLength": 2304
    },
    {
      "uri": "data:application/octet-stream;base64,",
      "byteLength": 2376
    },
    {
      "uri": "data:application/octet-stream;base64,",
      "byteLength": 1584
    },
    {
      "uri": "data:application/octet-stream;base64,",
      "byteLength": 2496
    },
    {
      "uri": "data:application/octet-stream;base64,",
      "byteLength": 2400
    },
    {
      "uri": "data:application/octet-stream;base64,",
      "byteLength": 2496
    },
    {
      "uri": "data:application/octet-stream;base64,",
      "byteLength": 1664
    },
    {
      "uri": "data:application/octet-stream;base64,",
      "byteLength": 2496
    },
    {
      "uri": "data:application/octet-stream;base64,",
      "byteLength": 2400
    },
    {
      "uri": "data:application/octet-stream;base64,",
      "byteLength": 2496
    },
    {
      "uri": "data:application/octet-stream;base64,",
      "byteLength": 1664
    },
    {
      "uri": "data:application/octet-stream;base64,",
      "byteLength": 2592
    },
    {
      "uri": "data:application/octet-stream;base64,",
      "byteLength": 2496
    },
    {
      "uri": "data:application/octet-stream;base64,",
      "byteLength": 2592
    },
    {
      "uri": "data:application/octet-stream;base64,",
      "byteLength": 1728
    },
    {
      "uri": "data:application/octet-stream;base64,",
      "byteLength": 48
    },
    {
      "uri": "data:application/octet-stream;base64,",
      "byteLength": 24
    },
    {
      "uri": "data:application/octet-stream;base64,",
      "byteLength": 48
    },
    {
      "uri": "data:application/octet-stream;base64,",
      "byteLength": 32
    },
    {
      "uri": "data:application/octet-stream;base64,",
      "byteLength": 48
    },
    {
      "uri": "data:application/octet-stream;base64,",
      "byteLength": 24
    },
    {
      "uri": "data:application/octet-stream;base64,",
      "byteLength": 48
    },
    {
      "uri": "data:application/octet-stream;base64,",
      "byteLength": 32
    }
  ],
  "bufferViews": [
    {
      "buffer": 0,
      "byteLength": 2376,
      "target": 34962
    },
    {
      "buffer": 1,
      "byteLength": 2304,
      "target": 34963
    },
    {
      "buffer": 2,
      "byteLength": 2376,
      "target": 34962
    },
    {
      "buffer": 3,
      "byteLength": 1584,
      "target": 34962
    },
    {
      "buffer": 4,
      "byteLength": 2544,
      "target": 34962
    },
    {
      "buffer": 5,
      "byteLength": 2448,
      "target": 34963
    },
    {
      "buffer": 6,
      "byteLength": 2544,
      "target": 34962
    },
    {
      "buffer": 7,
      "byteLength": 1696,
      "target": 34962
    },
    {
      "buffer": 8,
      "byteLength": 2544,
      "target": 34962
    },
    {
      "buffer": 9,
      "byteLength": 2448,
      "target": 34963
    },
    {
      "buffer": 10,
      "byteLength": 2544,
      "target": 34962
    },
    {
      "buffer": 11,
      "byteLength": 1696,
      "target": 34962
    },
    {
      "buffer": 12,
      "byteLength": 2592,
      "target": 34962
    },
    {
      "buffer": 13,
      "byteLength": 2496,
      "target": 34963
    },
    {
      "buffer": 14,
      "byteLength": 2592,
      "target": 34962
    },
    {
      "buffer": 15,
      "byteLength": 1728,
      "target": 34962
    },
    {
      "buffer": 16,
      "byteLength": 2376,
      "target": 34962
    },
    {
      "buffer": 17,
      "byteLength": 2304,
      "target": 34963
    },
    {
      "buffer": 18,
      "byteLength": 2376,
      "target": 34962
    },
    {
      "buffer": 19,
      "byteLength": 1584,
      "target": 34962
    },
    {
      "buffer": 20,
      "byteLength": 2496,
      "target": 34962
    },
    {
      "buffer": 21,
      "byteLength": 2400,
      "target": 34963
    },
    {
      "buffer": 22,
      "byteLength": 2496,
      "target": 34962
    },
    {
      "buffer": 23,
      "byteLength": 1664,
      "target": 34962
    },
    {
      "buffer": 24,
      "byteLength": 2496,
      "target": 34962
    },
    {
      "buffer": 25,
      "byteLength": 2400,
      "target": 34963
    },
    {
      "buffer": 26,
      "byteLength": 2496,
      "target": 34962
    },
    {
      "buffer": 27,
      "byteLength": 1664,
      "target": 34962
    },
    {
      "buffer": 28,
      "byteLength": 2592,
      "target": 34962
    },
    {
      "buffer": 29,
      "byteLength": 2496,
      "target": 34963
    },
    {
      "buffer": 30,
      "byteLength": 2592,
      "target": 34962
    },
    {
      "buffer": 31,
      "byteLength": 1728,
      "target": 34962
    },
    {
      "buffer": 32,
      "byteLength": 48,
      "target": 34962
    },
    {
      "buffer": 33,
      "byteLength": 24,
      "target": 34963
    },
    {
      "buffer": 34,
      "byteLength": 48,
      "target": 34962
    },
    {
      "buffer": 35,
      "byteLength": 32,
      "target": 34962
    },
    {
      "buffer": 36,
      "byteLength": 48,
      "target": 34962
    },
    {
      "buffer": 37,
      "byteLength": 24,
      "target": 34963
    },
    {
      "buffer": 38,
      "byteLength": 48,
      "target": 34962
    },
    {
      "buffer": 39,
      "byteLength": 32,
      "target": 34962
    }
  ],
  "materials": [
    {
      "pbrMetallicRoughness": {
        "baseColorFactor": [
          1.0,
          0.0,
          0.0,
          1.0
        ]
      }
    },
    {
      "pbrMetallicRoughness": {
        "baseColorFactor": [
          1.0,
          0.0,
          0.0,
          1.0
        ]
      }
    },
    {
      "pbrMetallicRoughness": {
        "baseColorFactor": [
          1.0,
          0.0,
          0.0,
          1.0
        ]
      }
    },
    {
      "pbrMetallicRoughness": {
        "baseColorFactor": [
          1.0,
          0.0,
          0.0,
          1.0
        ]
      }
    },
    {
      "pbrMetallicRoughness": {
        "baseColorFactor": [
          1.0,
          0.0,
          0.0,
          1.0
        ]
      }
    },
    {
      "pbrMetallicRoughness": {
        "baseColorFactor": [
          1.0,
          0.0,
          0.0,
          1.0
        ]
      }
    },
    {
      "pbrMetallicRoughness": {
        "baseColorFactor": [
          1.0,
          0.0,
          0.0,
          1.0
        ]
      }
    },
    {
      "pbrMetallicRoughness": {
        "baseColorFactor": [
          1.0,
          0.0,
          0.0,
          1.0
        ]
      }
    },
    {
      "pbrMetallicRoughness": {
        "baseColorFactor": [
          1.0,
          0.0,
          0.0,
          1.0
        ]
      }
    },
    {
      "pbrMetallicRoughness": {
        "baseColorFactor": [
          1.0,
          0.0,
          0.0,
          1.0
        ]
      }
    }
  ],
  "meshes": [
    {
      "primitives": [
        {
          "attributes": {
            "POSITION": 0,
            "NORMAL": 2,
            "TEXCOORD_0": 3
          },
          "indices": 1,
          "material": 0
        }
      ]
    },
    {
      "primitives": [
        {
          "attributes": {
            "POSITION": 4,
            "NORMAL": 6,
            "TEXCOORD_0": 7
          },
          "indices": 5,
          "material": 1
        }
      ]
    },
    {
      "primitives": [
        {
          "attributes": {
            "POSITION": 8,
            "NORMAL": 10,
            "TEXCOORD_0": 11
          },
          "indices": 9,
          "material": 2
        }
      ]
    },
    {
      "primitives": [
        {
          "attributes": {
            "POSITION": 12,
            "NORMAL": 14,
            "TEXCOORD_0": 15
          },
          "indices": 13,
          "material": 3
        }
      ]
    },
    {
      "primitives": [
        {
          "attributes": {
            "POSITION": 16,
            "NORMAL": 18,
            "TEXCOORD_0": 19
          },
          "indices": 17,
          "material": 4
        }
      ]
    },
    {
      "primitives": [
        {
          "attributes": {
            "POSITION": 20,
            "NORMAL": 22,
            "TEXCOORD_0": 23
          },
          "indices": 21,
          "material": 5
        }
      ]
    },
    {
      "primitives": [
        {
          "attributes": {
            "POSITION": 24,
            "NORMAL": 26,
            "TEXCOORD_0": 27
          },
          "indices": 25,
          "material": 6
        }
      ]
    },
    {
      "primitives": [
        {
          "attributes": {
            "POSITION": 28,
            "NORMAL": 30,
            "TEXCOORD_0": 31
          },
          "indices": 29,
          "material": 7
        }
      ]
    },
    {
      "primitives": [
        {
          "attributes": {
            "POSITION": 32,
            "NORMAL": 34,
            "TEXCOORD_0": 35
          },
          "indices": 33,
          "material": 8
        }
      ]
    },
    {
      "primitives": [
        {
          "attributes": {
            "POSITION": 36,
            "NORMAL": 38,
            "TEXCOORD_0": 39
          },
          "indices": 37,
          "material": 9
        }
      ]
    }
  ],
  "nodes": [
    {
      "mesh": 0
    },
    {
      "mesh": 1
    },
    {
      "mesh": 2
    },
    {
      "mesh": 3
    },
    {
      "mesh": 4
    },
    {
      "mesh": 5
    },
    {
      "mesh": 6
    },
    {
      "mesh": 7
    },
    {
      "mesh": 8
    },
    {
      "mesh": 9
    }
  ],
  "samplers": [
    {
      "magFilter": 9729,
      "minFilter": 9729
    }
  ],
  "scene": 0,
  "scenes": [
    {
      "nodes": [
        0,
        1,
        2,
        3,
        4,
        5,
        6,
        7,
        8,
        9
      ],
      "extensions": {}
    }
  ],
  "extensions": {}
}